<?xml version="1.0" encoding="utf-8"?><svg style="position:absolute;width:0;height:0" xmlns="http://www.w3.org/2000/svg" xmlns:xlink="http://www.w3.org/1999/xlink"><symbol viewBox="0 0 24 24" fill="none" stroke="currentColor" stroke-width="2" stroke-linecap="round" stroke-linejoin="round" id="icon-bot" xmlns="http://www.w3.org/2000/svg"><path d="M12 8V4H8"/><rect width="16" height="12" x="4" y="8" rx="2"/><path d="M2 14h2M20 14h2M15 13v2M9 13v2"/></symbol><symbol viewBox="0 0 24 24" fill="none" stroke="currentColor" stroke-width="2" stroke-linecap="round" stroke-linejoin="round" id="icon-calendar-range" xmlns="http://www.w3.org/2000/svg"><rect width="18" height="18" x="3" y="4" rx="2"/><path d="M16 2v4M3 10h18M8 2v4M17 14h-6M13 18H7M7 14h.01M17 18h.01"/></symbol><symbol viewBox="0 0 24 24" fill="none" stroke="currentColor" stroke-width="2" stroke-linecap="round" stroke-linejoin="round" id="icon-dashboard" xmlns="http://www.w3.org/2000/svg"><rect width="7" height="9" x="3" y="3" rx="1"/><rect width="7" height="5" x="14" y="3" rx="1"/><rect width="7" height="9" x="14" y="12" rx="1"/><rect width="7" height="5" x="3" y="16" rx="1"/></symbol><symbol viewBox="0 0 24 24" fill="none" stroke="currentColor" stroke-width="2" stroke-linecap="round" stroke-linejoin="round" id="icon-euro" xmlns="http://www.w3.org/2000/svg"><path d="M4 10h12M4 14h9M19 6a7.7 7.7 0 0 0-5.2-2A7.9 7.9 0 0 0 6 12c0 4.4 3.5 8 7.8 8 2 0 3.8-.8 5.2-2"/></symbol><symbol viewBox="0 0 24 24" fill="none" stroke="currentColor" stroke-width="2" stroke-linecap="round" stroke-linejoin="round" id="icon-gavel" xmlns="http://www.w3.org/2000/svg"><path d="m14 13-8.381 8.38a1 1 0 0 1-3.001-3l8.384-8.381M16 16l6-6M21.5 10.5l-8-8M8 8l6-6M8.5 7.5l8 8"/></symbol><symbol viewBox="0 0 24 24" fill="none" stroke="currentColor" stroke-width="2" stroke-linecap="round" stroke-linejoin="round" id="icon-heart" xmlns="http://www.w3.org/2000/svg"><path d="M2 9.5a5.5 5.5 0 0 1 9.591-3.676.56.56 0 0 0 .818 0A5.49 5.49 0 0 1 22 9.5c0 2.29-1.5 4-3 5.5l-5.492 5.313a2 2 0 0 1-3 .019L5 15c-1.5-1.5-3-3.2-3-5.5"/></symbol><symbol viewBox="0 0 24 24" fill="none" stroke="currentColor" stroke-width="2" stroke-linecap="round" stroke-linejoin="round" id="icon-log-in" xmlns="http://www.w3.org/2000/svg"><path d="m10 17 5-5-5-5M15 12H3M15 3h4a2 2 0 0 1 2 2v14a2 2 0 0 1-2 2h-4"/></symbol><symbol fill="none" viewBox="0 0 2956 1007" id="icon-logo-white" xmlns="http://www.w3.org/2000/svg"><path d="M1016.18 353.958c-10.03 18.461-15.25 25.685-22.073 33.712-16.856 19.264-52.975 48.159-115.984 48.159-36.12 0-68.226-8.829-95.918-32.507-47.357-39.732-50.969-96.32-50.969-116.386 0-17.257 2.007-56.588 29.297-94.714 38.929-54.982 93.109-58.995 117.991-58.995 64.614 0 103.142 33.711 118.794 51.771 8.432 9.632 12.442 16.455 18.462 27.291l-75.05 37.323c-1.204-2.809-2.809-5.618-4.013-8.428-4.816-9.632-18.862-38.929-54.982-38.527-16.455 0-26.889 6.02-32.508 10.033-28.093 20.869-26.889 61.805-26.889 69.029 0 38.929 12.441 59.798 26.087 70.634 14.046 10.836 26.889 11.237 33.711 11.237 30.903 0 45.351-20.869 50.969-30.501 2.007-4.013 3.612-7.625 6.421-16.053l76.654 36.922ZM1345.27 427h-96.32l-12.44-39.732h-98.73L1125.34 427h-96.32l108.36-283.339h101.94L1345.27 427Zm-127.22-102.74-30.1-99.932-30.9 99.932h61ZM1644.26 427h-100.33l-54.99-99.931h-26.08V427h-89.9V143.661h153.31c8.02 0 16.45.401 24.48 1.204 12.44 1.204 48.56 4.415 69.03 38.528 4.81 8.428 13.24 26.086 13.24 50.969 0 26.889-10.43 51.37-33.31 66.62-6.02 4.014-11.24 6.422-24.88 11.639L1644.26 427Zm-100.74-191.033c0-6.823-2-14.448-5.61-20.066-2.81-4.014-6.83-6.422-8.43-7.224-9.23-5.218-19.67-5.619-30.1-5.619h-36.52v65.818h37.32c16.46 0 34.92-2.007 41.34-20.468.4-1.605 2-6.822 2-12.441Zm337.12-22.474h-71.83V427h-89.5V213.493h-72.24v-69.832h233.57v69.832ZM2143.52 427h-236.38V143.661h224.34v62.206h-134.45v42.14h125.62v61.403h-126.02v56.187h146.89V427ZM1006.94 774.016c0 9.231-1.2 38.929-22.071 58.996-7.625 7.625-16.053 11.237-19.665 12.842-17.659 8.027-33.31 9.231-51.772 9.231H740.058V571.746h167.756c8.026 0 16.053.401 24.08 1.605 16.855 2.408 36.922 9.632 48.962 22.074 2.408 2.809 7.224 8.428 11.237 16.855 4.816 9.632 7.224 20.468 7.224 31.304 0 9.231-2.809 36.12-25.685 54.18-4.415 3.21-8.829 6.02-18.863 10.434l12.04 3.612c8.83 2.81 15.652 7.625 22.475 14.448 17.256 18.06 17.656 38.528 17.656 47.758Zm-98.725-118.392c0-7.224-2.007-11.639-3.612-14.046-6.822-10.836-20.468-10.034-23.678-10.034h-51.371v47.759h49.364c9.632 0 20.468-.803 26.086-10.435 3.211-4.816 3.211-10.836 3.211-13.244Zm7.625 111.168c0-3.21-.401-9.23-4.013-15.25-8.027-13.244-24.882-12.843-28.494-12.843h-54.18v55.384h56.186c10.034 0 19.264-2.007 25.685-11.237 4.415-6.422 4.816-12.843 4.816-16.054Zm323.68 88.293h-199.06V571.746h89.5v211.902h109.56v71.437Zm324.67 0h-96.32l-12.44-39.732h-98.73l-12.44 39.732h-96.32l108.36-283.339h101.94l105.95 283.339Zm-127.22-102.74-30.1-99.932-30.9 99.932h61Zm428.62 102.74h-96.72l-94.32-164.545.81 164.545h-83.48V571.746H1687l95.91 164.947-1.2-164.947h83.88v283.339Zm322.06-73.042c-10.04 18.461-15.25 25.685-22.08 33.712-16.85 19.263-52.97 48.159-115.98 48.159-36.12 0-68.23-8.829-95.92-32.507-47.35-39.732-50.97-96.32-50.97-116.386 0-17.257 2.01-56.588 29.3-94.714 38.93-54.982 93.11-58.995 117.99-58.995 64.62 0 103.14 33.711 118.8 51.771 8.42 9.632 12.44 16.455 18.46 27.291l-75.05 37.323c-1.21-2.809-2.81-5.618-4.02-8.428-4.81-9.632-18.86-38.929-54.98-38.527-16.45 0-26.89 6.02-32.51 10.033-28.09 20.869-26.88 61.805-26.88 69.029 0 38.929 12.44 59.798 26.08 70.634 14.05 10.836 26.89 11.237 33.71 11.237 30.91 0 45.35-20.869 50.97-30.501 2.01-4.014 3.61-7.625 6.42-16.053l76.66 36.922Zm296.18 73.042h-90.3V745.923h-85.48v109.162h-89.5V571.746h89.5v103.142h85.48V571.746h90.3v283.339Zm280.13 0h-236.39V571.746h224.35v62.206h-134.45v42.14h125.62v61.403h-126.02v56.187h146.89v61.403Z" fill="#fff"/><g filter="url(#ha)"><circle cx="2860.47" cy="789.606" r="50.835" fill="#6366F9"/></g><path fill="#6366F9" fill-opacity=".2" d="M2866.56 720.043h-14.848v141.803h14.848z"/><path fill="#6366F9" fill-opacity=".19" d="m2830.12 725.83-12.859 7.424 70.902 122.805 12.858-7.424z"/><path fill="#6366F9" fill-opacity=".2" d="m2801.45 749.063-7.424 12.859 122.805 70.901 7.424-12.858z"/><path fill="#6366F9" fill-opacity=".2" d="M2788.24 783.52v14.848h141.803V783.52z"/><path fill="#6366F9" fill-opacity=".2" d="m2794.02 819.965 7.424 12.859 122.805-70.902-7.424-12.859z"/><path fill="#6366F9" fill-opacity=".2" d="m2817.26 848.634 12.859 7.424 70.901-122.805-12.858-7.424z"/><path d="m438.68 421.402 192.741 316.777c21.542 35.074 10.521 80.816-24.623 102.195a74.755 74.755 0 0 1-102.506-24.697L310.451 499.838M205.869 328.866 310.45 499.838M438.68 421.402 334.099 250.43" stroke="#fff" stroke-width="59.852" stroke-linecap="round" stroke-linejoin="round"/><path d="M176.806 569.424 83.049 416.148a35.43 35.43 0 0 1 11.734-48.704l98.01-59.952 13.072 21.372 128.229-78.436-13.072-21.372 98.009-59.951a35.428 35.428 0 0 1 48.704 11.735l93.758 153.276a35.428 35.428 0 0 1-11.735 48.704l-98.01 59.951-13.072-21.371-128.229 78.436 13.072 21.371-98.009 59.951a35.429 35.429 0 0 1-48.704-11.734Z" stroke="#fff" stroke-width="59.852" stroke-linecap="round" stroke-linejoin="round"/><defs><filter id="ha" x="2765.23" y="694.357" width="190.498" height="190.498" filterUnits="userSpaceOnUse" color-interpolation-filters="sRGB"><feFlood flood-opacity="0" result="BackgroundImageFix"/><feBlend in="SourceGraphic" in2="BackgroundImageFix" result="shape"/><feGaussianBlur stdDeviation="22.207" result="effect1_foregroundBlur_81_2366"/></filter></defs></symbol><symbol viewBox="0 0 24 24" fill="none" stroke="currentColor" stroke-width="2" stroke-linecap="round" stroke-linejoin="round" id="icon-megaphone" xmlns="http://www.w3.org/2000/svg"><path d="M11 6a13 13 0 0 0 8.4-2.8A1 1 0 0 1 21 4v12a1 1 0 0 1-1.6.8A13 13 0 0 0 11 14H5a2 2 0 0 1-2-2V8a2 2 0 0 1 2-2z"/><path d="M6 14a12 12 0 0 0 2.4 7.2 2 2 0 0 0 3.2-2.4A8 8 0 0 1 10 14M8 6v8"/></symbol><symbol viewBox="0 0 24 24" fill="none" stroke="currentColor" stroke-width="2" stroke-linecap="round" stroke-linejoin="round" id="icon-menu" xmlns="http://www.w3.org/2000/svg"><path d="M3 5h18M3 12h18M3 19h18"/></symbol><symbol viewBox="0 0 24 24" fill="none" stroke="currentColor" stroke-width="2" stroke-linecap="round" stroke-linejoin="round" id="icon-shopping-cart" xmlns="http://www.w3.org/2000/svg"><circle cx="8" cy="21" r="1"/><circle cx="19" cy="21" r="1"/><path d="M2.05 2.05h2l2.66 12.42a2 2 0 0 0 2 1.58h9.78a2 2 0 0 0 1.95-1.57l1.65-7.43H5.12"/></symbol><symbol viewBox="0 0 24 24" fill="none" stroke="currentColor" stroke-width="2" stroke-linecap="round" stroke-linejoin="round" id="icon-ticket-x" xmlns="http://www.w3.org/2000/svg"><path d="M2 9a3 3 0 0 1 0 6v2a2 2 0 0 0 2 2h16a2 2 0 0 0 2-2v-2a3 3 0 0 1 0-6V7a2 2 0 0 0-2-2H4a2 2 0 0 0-2 2ZM9.5 14.5l5-5M9.5 9.5l5 5"/></symbol><symbol viewBox="0 0 24 24" fill="none" stroke="currentColor" stroke-width="2" stroke-linecap="round" stroke-linejoin="round" id="icon-tickets" xmlns="http://www.w3.org/2000/svg"><path d="m3.173 8.18 11-5a2 2 0 0 1 2.647.993L18.56 8M6 10V8M6 14v1M6 19v2"/><rect x="2" y="8" width="20" height="13" rx="2"/></symbol><symbol viewBox="0 0 24 24" fill="none" stroke="currentColor" stroke-width="2" stroke-linecap="round" stroke-linejoin="round" id="icon-user" xmlns="http://www.w3.org/2000/svg"><path d="M19 21v-2a4 4 0 0 0-4-4H9a4 4 0 0 0-4 4v2"/><circle cx="12" cy="7" r="4"/></symbol><symbol viewBox="0 0 24 24" fill="none" stroke="currentColor" stroke-width="2" stroke-linecap="round" stroke-linejoin="round" id="icon-users" xmlns="http://www.w3.org/2000/svg"><path d="M16 21v-2a4 4 0 0 0-4-4H6a4 4 0 0 0-4 4v2M16 3.128a4 4 0 0 1 0 7.744M22 21v-2a4 4 0 0 0-3-3.87"/><circle cx="9" cy="7" r="4"/></symbol></svg>