<svg width="2956" height="1007" viewBox="0 0 2956 1007" fill="none" xmlns="http://www.w3.org/2000/svg">
<path d="M1016.18 353.958C1006.15 372.419 1000.93 379.643 994.107 387.67C977.251 406.934 941.132 435.829 878.123 435.829C842.003 435.829 809.897 427 782.205 403.322C734.848 363.59 731.236 307.002 731.236 286.936C731.236 269.679 733.243 230.348 760.533 192.222C799.462 137.24 853.642 133.227 878.524 133.227C943.138 133.227 981.666 166.938 997.318 184.998C1005.75 194.63 1009.76 201.453 1015.78 212.289L940.73 249.612C939.526 246.803 937.921 243.994 936.717 241.184C931.901 231.552 917.855 202.255 881.735 202.657C865.28 202.657 854.846 208.677 849.227 212.69C821.134 233.559 822.338 274.495 822.338 281.719C822.338 320.648 834.779 341.517 848.425 352.353C862.471 363.189 875.314 363.59 882.136 363.59C913.039 363.59 927.487 342.721 933.105 333.089C935.112 329.076 936.717 325.464 939.526 317.036L1016.18 353.958ZM1345.27 427H1248.95L1236.51 387.268H1137.78L1125.34 427H1029.02L1137.38 143.661H1239.32L1345.27 427ZM1218.05 324.26L1187.95 224.328L1157.05 324.26H1218.05ZM1644.26 427H1543.93L1488.94 327.069H1462.86V427H1372.96V143.661H1526.27C1534.29 143.661 1542.72 144.062 1550.75 144.865C1563.19 146.069 1599.31 149.28 1619.78 183.393C1624.59 191.821 1633.02 209.479 1633.02 234.362C1633.02 261.251 1622.59 285.732 1599.71 300.982C1593.69 304.996 1588.47 307.404 1574.83 312.621L1644.26 427ZM1543.52 235.967C1543.52 229.144 1541.52 221.519 1537.91 215.901C1535.1 211.887 1531.08 209.479 1529.48 208.677C1520.25 203.459 1509.81 203.058 1499.38 203.058H1462.86V268.876H1500.18C1516.64 268.876 1535.1 266.869 1541.52 248.408C1541.92 246.803 1543.52 241.586 1543.52 235.967ZM1880.64 213.493H1808.81V427H1719.31V213.493H1647.07V143.661H1880.64V213.493ZM2143.52 427H1907.14V143.661H2131.48V205.867H1997.03V248.007H2122.65V309.41H1996.63V365.597H2143.52V427Z" fill="white"/>
<path d="M1006.94 774.016C1006.94 783.247 1005.74 812.945 984.869 833.012C977.244 840.637 968.816 844.249 965.204 845.854C947.545 853.881 931.894 855.085 913.432 855.085H740.058V571.746H907.814C915.84 571.746 923.867 572.147 931.894 573.351C948.749 575.759 968.816 582.983 980.856 595.425C983.264 598.234 988.08 603.853 992.093 612.28C996.909 621.912 999.317 632.748 999.317 643.584C999.317 652.815 996.508 679.704 973.632 697.764C969.217 700.974 964.803 703.784 954.769 708.198L966.809 711.81C975.639 714.62 982.461 719.435 989.284 726.258C1006.54 744.318 1006.94 764.786 1006.94 774.016ZM908.215 655.624C908.215 648.4 906.208 643.985 904.603 641.578C897.781 630.742 884.135 631.544 880.925 631.544H829.554V679.303H878.918C888.55 679.303 899.386 678.5 905.004 668.868C908.215 664.052 908.215 658.032 908.215 655.624ZM915.84 766.792C915.84 763.582 915.439 757.562 911.827 751.542C903.8 738.298 886.945 738.699 883.333 738.699H829.153V794.083H885.339C895.373 794.083 904.603 792.076 911.024 782.846C915.439 776.424 915.84 770.003 915.84 766.792ZM1239.52 855.085H1040.46V571.746H1129.96V783.648H1239.52V855.085ZM1564.19 855.085H1467.87L1455.43 815.353H1356.7L1344.26 855.085H1247.94L1356.3 571.746H1458.24L1564.19 855.085ZM1436.97 752.345L1406.87 652.413L1375.97 752.345H1436.97ZM1865.59 855.085H1768.87L1674.55 690.54L1675.36 855.085H1591.88V571.746H1687L1782.91 736.693L1781.71 571.746H1865.59V855.085ZM2187.65 782.043C2177.61 800.504 2172.4 807.728 2165.57 815.755C2148.72 835.018 2112.6 863.914 2049.59 863.914C2013.47 863.914 1981.36 855.085 1953.67 831.407C1906.32 791.675 1902.7 735.087 1902.7 715.021C1902.7 697.764 1904.71 658.433 1932 620.307C1970.93 565.325 2025.11 561.312 2049.99 561.312C2114.61 561.312 2153.13 595.023 2168.79 613.083C2177.21 622.715 2181.23 629.538 2187.25 640.374L2112.2 677.697C2110.99 674.888 2109.39 672.079 2108.18 669.269C2103.37 659.637 2089.32 630.34 2053.2 630.742C2036.75 630.742 2026.31 636.762 2020.69 640.775C1992.6 661.644 1993.81 702.58 1993.81 709.804C1993.81 748.733 2006.25 769.602 2019.89 780.438C2033.94 791.274 2046.78 791.675 2053.6 791.675C2084.51 791.675 2098.95 770.806 2104.57 761.174C2106.58 757.16 2108.18 753.549 2110.99 745.121L2187.65 782.043ZM2483.83 855.085H2393.53V745.923H2308.05V855.085H2218.55V571.746H2308.05V674.888H2393.53V571.746H2483.83V855.085ZM2763.96 855.085H2527.57V571.746H2751.92V633.952H2617.47V676.092H2743.09V737.495H2617.07V793.682H2763.96V855.085Z" fill="white"/>
<g filter="url(#filter0_f_81_2366)">
<circle cx="2860.47" cy="789.606" r="50.8351" fill="#6366F9"/>
</g>
<rect width="14.8485" height="141.803" transform="matrix(-1 0 0 1 2866.56 720.043)" fill="#6366F9" fill-opacity="0.2"/>
<rect width="14.8485" height="141.803" transform="matrix(-0.866025 0.5 0.5 0.866025 2830.12 725.83)" fill="#6366F9" fill-opacity="0.19"/>
<rect width="14.8485" height="141.803" transform="matrix(-0.5 0.866025 0.866025 0.5 2801.45 749.063)" fill="#6366F9" fill-opacity="0.2"/>
<rect width="14.8485" height="141.803" transform="matrix(4.37114e-08 1 1 -4.37114e-08 2788.24 783.52)" fill="#6366F9" fill-opacity="0.2"/>
<rect width="14.8485" height="141.803" transform="matrix(0.5 0.866025 0.866025 -0.5 2794.02 819.965)" fill="#6366F9" fill-opacity="0.2"/>
<rect width="14.8485" height="141.803" transform="matrix(0.866025 0.5 0.5 -0.866025 2817.26 848.634)" fill="#6366F9" fill-opacity="0.2"/>
<path d="M438.68 421.402L631.421 738.179C652.963 773.253 641.942 818.995 606.798 840.374C589.916 850.639 569.657 853.803 550.449 849.175C531.242 844.547 514.647 832.504 504.292 815.677L310.451 499.838" stroke="white" stroke-width="59.8517" stroke-linecap="round" stroke-linejoin="round"/>
<path d="M205.869 328.866L310.45 499.838" stroke="white" stroke-width="59.8517" stroke-linecap="round" stroke-linejoin="round"/>
<path d="M438.68 421.402L334.099 250.43" stroke="white" stroke-width="59.8517" stroke-linecap="round" stroke-linejoin="round"/>
<path d="M176.806 569.424L83.0486 416.148C78.1475 408.133 76.6305 398.499 78.831 389.366C81.0316 380.232 86.7696 372.347 94.7831 367.444L192.793 307.492L205.865 328.864L334.094 250.428L321.022 229.056L419.031 169.105C427.046 164.204 436.68 162.687 445.813 164.888C454.947 167.088 462.832 172.826 467.735 180.84L561.493 334.116C566.394 342.131 567.911 351.764 565.71 360.898C563.51 370.031 557.772 377.917 549.758 382.82L451.748 442.771L438.676 421.4L310.447 499.836L323.519 521.207L225.51 581.158C217.495 586.059 207.861 587.577 198.728 585.376C189.595 583.175 181.709 577.437 176.806 569.424Z" stroke="white" stroke-width="59.8517" stroke-linecap="round" stroke-linejoin="round"/>
<defs>
<filter id="filter0_f_81_2366" x="2765.23" y="694.357" width="190.498" height="190.498" filterUnits="userSpaceOnUse" color-interpolation-filters="sRGB">
<feFlood flood-opacity="0" result="BackgroundImageFix"/>
<feBlend mode="normal" in="SourceGraphic" in2="BackgroundImageFix" result="shape"/>
<feGaussianBlur stdDeviation="22.2069" result="effect1_foregroundBlur_81_2366"/>
</filter>
</defs>
</svg>
